<svg xmlns="http://www.w3.org/2000/svg" viewBox="0 0 512 512">
  <defs>
    <linearGradient id="bg" x1="0.1" y1="0" x2="0.9" y2="1">
      <stop offset="0" stop-color="#2f6bff"/>
      <stop offset="0.55" stop-color="#1d4ed8"/>
      <stop offset="1" stop-color="#162c87"/>
    </linearGradient>
    <radialGradient id="glow" cx="0.28" cy="0.22" r="0.8">
      <stop offset="0" stop-color="#ffffff" stop-opacity="0.22"/>
      <stop offset="0.5" stop-color="#ffffff" stop-opacity="0"/>
    </radialGradient>
    <linearGradient id="paper" x1="0" y1="0" x2="0" y2="1">
      <stop offset="0" stop-color="#ffffff"/>
      <stop offset="1" stop-color="#eef2f7"/>
    </linearGradient>
    <linearGradient id="chip" x1="0" y1="0" x2="0" y2="1">
      <stop offset="0" stop-color="#3b82f6"/>
      <stop offset="1" stop-color="#1d4ed8"/>
    </linearGradient>
    <filter id="cardshadow" x="-30%" y="-30%" width="160%" height="160%">
      <feDropShadow dx="0" dy="14" stdDeviation="18" flood-color="#0a1838" flood-opacity="0.38"/>
    </filter>
  </defs>
  <rect width="512" height="512" rx="114" fill="url(#bg)"/>
  <rect width="512" height="512" rx="114" fill="url(#glow)"/>
  <g transform="rotate(-3 256 256)" filter="url(#cardshadow)">
    <rect x="120" y="96" width="272" height="320" rx="30" fill="url(#paper)"/>
    <rect x="120.8" y="96.8" width="270.4" height="318.4" rx="29" fill="none" stroke="#ffffff" stroke-opacity="0.8" stroke-width="1.6"/>
    <rect x="152" y="131" width="146" height="24" rx="12" fill="#16307a"/>
    <g>
      <circle cx="346" cy="143" r="23" fill="#ffffff" stroke="#e2e8f0" stroke-width="1.5"/>
      <path d="M332 126 Q322 143 332 160" stroke="#e11d48" stroke-width="2.6" fill="none" stroke-linecap="round"/>
      <path d="M360 126 Q370 143 360 160" stroke="#e11d48" stroke-width="2.6" fill="none" stroke-linecap="round"/>
      <g stroke="#e11d48" stroke-width="2" stroke-linecap="round">
        <path d="M328 132 l7 1 M325 143 l8 0 M328 154 l7 -1"/>
        <path d="M364 132 l-7 1 M367 143 l-8 0 M364 154 l-7 -1"/>
      </g>
    </g>
    <rect x="152" y="176" width="194" height="3" rx="1.5" fill="#e2e8f0"/>
    <g>
      <circle cx="170" cy="226" r="18" fill="url(#chip)"/><rect x="202" y="217" width="146" height="18" rx="9" fill="#d4dceb"/>
      <circle cx="170" cy="286" r="18" fill="url(#chip)"/><rect x="202" y="277" width="146" height="18" rx="9" fill="#d4dceb"/>
      <circle cx="170" cy="346" r="18" fill="url(#chip)"/><rect x="202" y="337" width="110" height="18" rx="9" fill="#dde4ef"/>
    </g>
  </g>
</svg>
