<svg xmlns="http://www.w3.org/2000/svg" viewBox="0 0 24 24" fill="none" stroke="currentColor" stroke-width="1.6" stroke-linecap="round" stroke-linejoin="round">
  <circle cx="12" cy="12" r="9" fill="currentColor" fill-opacity="0.08"></circle>
  <path d="M7 5.8c1.6 1.7 2.4 3.7 2.4 6.2s-.8 4.5-2.4 6.2"></path>
  <path d="M17 5.8c-1.6 1.7-2.4 3.7-2.4 6.2s.8 4.5 2.4 6.2"></path>
  <g stroke-width="1.2" stroke-linecap="round">
    <path d="M8.3 7.7l-1.6-.6"></path>
    <path d="M9 9.6l-1.7-.3"></path>
    <path d="M9.4 11.4l-1.7 0"></path>
    <path d="M9.4 13l-1.7 0"></path>
    <path d="M9 14.8l-1.7.3"></path>
    <path d="M8.3 16.7l-1.6.6"></path>
    <path d="M15.7 7.7l1.6-.6"></path>
    <path d="M15 9.6l1.7-.3"></path>
    <path d="M14.6 11.4l1.7 0"></path>
    <path d="M14.6 13l1.7 0"></path>
    <path d="M15 14.8l1.7.3"></path>
    <path d="M15.7 16.7l1.6.6"></path>
  </g>
</svg>