<svg xmlns="http://www.w3.org/2000/svg" viewBox="0 0 24 24" fill="none" stroke="currentColor" stroke-width="1.6" stroke-linecap="round" stroke-linejoin="round">
  
  <path d="M3.5 13&#xA;           Q3.5 7 7.5 5.8&#xA;           Q11 5 13 7.2&#xA;           Q14 5.2 16.5 5.6&#xA;           Q19.5 6.2 20.3 9.2&#xA;           Q20.7 11.5 19 13&#xA;           Q17.8 13.9 16.2 13.7&#xA;           Q15 13.5 14 13&#xA;           L14 17&#xA;           Q14 20.5 11 20.5&#xA;           L7.8 20.5&#xA;           Q3.5 20.5 3.5 17 Z" fill="currentColor" fill-opacity="0.12"></path>
  
  <path d="M14.5 7.8 L17.2 7.2" stroke-width="1.1"></path>
  <path d="M14.5 9.4 L17.4 9" stroke-width="1.1"></path>
  <path d="M14.8 11 L17 11" stroke-width="1.1"></path>
  
  <circle cx="8.8" cy="13" r="2.6" fill="currentColor" fill-opacity="0.25"></circle>
  <path d="M6.6 12.4 q2.2 0.7 4.4 0" stroke-width="1.1"></path>
  <path d="M6.6 13.6 q2.2 -0.7 4.4 0" stroke-width="1.1"></path>
</svg>